
		<svg width="3419.5804195804194" height="3419.5804195804194" xmlns="http://www.w3.org/2000/svg" xmlns:xlink="http://www.w3.org/1999/xlink" version="1.1">
            <g transform="scale(20.97902097902098) translate(10, 10)">
				<defs id="SvgjsDefs1001"/><g id="SvgjsG1014" transform="translate(0.30000007152557373, 0.30000007152557373) scale(0.968660085998835)" feature="container" rel="mainfill" name="outline_container" xmlns:name="outlineContainer_mainfill" fill="#ffffff"><path d="M18.6 112c-.6-.9-1.8-.5-2.7-.3v-1.8a.9.9 0 1 0-1.8-.1v2.1l-2.4.4c-.8.2-.4 1.3.3 1.3h2.1c0 .8.1 1.7.1 2.5a.6.6 0 0 0 1.2 0c.1-.9.2-1.7.2-2.6H18a.9.9 0 0 0 .6-1.5zm-16-26.9L4 82.9l.6.3.7.3.4.2.4.2h.1a.9.9 0 0 0 .9-1c-.2-1.1-1.4-1.2-2.3-1.5l.9-1.6a.9.9 0 1 0-1.6-.9l-.9 1.9-2.3-.7c-.8-.2-.9 1-.3 1.3l1.9.9-1 2.3a.6.6 0 0 0 1.1.5zm9.5 19h.6a.9.9 0 0 0 .6-1.2c-.5-1-1.7-.8-2.6-.7l.4-1.8a.9.9 0 1 0-1.8-.3l-.3 2.1H6.5c-.8.1-.6 1.2.1 1.3l2.1.2c-.1.8-.2 1.6-.3 2.5a.6.6 0 0 0 1.1.2c.2-.8.4-1.7.6-2.6H12zM6.9 93.8l.8.2h.9a.9.9 0 0 0 .8-1.1c-.3-1-1.6-1-2.5-1.1l.7-1.7a.9.9 0 1 0-1.7-.6l-.6 2-2.4-.3c-.8-.1-.8 1.1-.1 1.3l2.1.6-.6 2.4a.6.6 0 0 0 1.1.4l1-2.4zm15.6 26.5l-.2-1.8a.9.9 0 1 0-1.8.2l.4 2.1-2.3.8c-.8.3-.2 1.3.5 1.2l2.1-.4c.2.8.3 1.6.5 2.4a.6.6 0 0 0 1.1-.1c0-.9-.1-1.7-.2-2.6l.7-.2.8-.2h.9a.9.9 0 0 0 .2-1.3c-.7-1-1.8-.4-2.7-.1zM37.2 16a.9.9 0 1 0 .1-1.8h-2.1c-.1-.8-.2-1.6-.4-2.4s-1.3-.4-1.3.3 0 1.4.1 2.1h-2.5a.6.6 0 0 0 0 1.2l2.6.2v1.9a.7.7 0 0 0 0 .5.9.9 0 0 0 1.3.4c.9-.6.5-1.8.3-2.7zm-10.3 6.5l1.8-.2a.9.9 0 1 0-.2-1.8l-2.1.4c-.2-.8-.5-1.5-.8-2.3s-1.3-.2-1.2.5.3 1.4.4 2.1l-2.4.5a.6.6 0 0 0 .1 1.1l2.6-.2.2.7.2.8c0 .3 0 .4.1.4a.7.7 0 0 0 .1.5.9.9 0 0 0 1.3.2c.7-.7.2-1.8-.1-2.7zM42 132.8c-1-.5-1.8.4-2.6 1l-.7-1.7a.9.9 0 1 0-1.6.8l1 1.8-1.9 1.5c-.6.5.2 1.3.9 1l1.8-1.1 1.2 2.2a.6.6 0 0 0 1-.5l-1-2.4.6-.4.7-.4.4-.2.4-.2a.9.9 0 0 0-.2-1.4zm-11.6-5.1l-.5-1.7a.9.9 0 1 0-1.7.5l.7 2-2.1 1.2c-.7.4 0 1.3.7 1.1l2-.8.9 2.3a.6.6 0 0 0 1.1-.3c-.2-.9-.4-1.7-.6-2.6l.6-.3.7-.3h.4l.5-.2a.9.9 0 0 0 0-1.3c-.8-.8-1.8-.1-2.6.4zm98.1-92.6c.6.9 1.8.5 2.7.3v1.8a.9.9 0 1 0 1.8.1v-2.1l2.4-.4c.8-.2.4-1.3-.3-1.3H133c0-.8-.1-1.7-.1-2.5a.6.6 0 0 0-1.2 0c-.1.9-.2 1.7-.2 2.6H129a.9.9 0 0 0-.4 1.5zM46.7 11a.9.9 0 1 0 .3-1.8l-2.1-.3c0-.8 0-1.6-.1-2.4s-1.2-.6-1.3.1-.2 1.4-.2 2.1l-2.5-.3a.6.6 0 0 0-.2 1.1l2.6.6v1.5c-.1.3-.1.4-.1.4a.7.7 0 0 0-.1.5.9.9 0 0 0 1.2.6c1-.5.8-1.7.7-2.6zM135 43h-.6a.9.9 0 0 0-.6 1.2c.5 1 1.7.8 2.6.7l-.4 1.8a.9.9 0 1 0 1.8.3l.3-2.1h2.4c.8-.1.6-1.2-.1-1.3l-2.1-.2c.1-.8.2-1.6.3-2.5a.6.6 0 0 0-1.1-.2c-.2.8-.4 1.7-.6 2.6H135zm-10.4-16.1l.2 1.8a.9.9 0 1 0 1.8-.2l-.4-2.1 2.3-.8c.8-.3.2-1.3-.5-1.2l-2.1.4c-.2-.8-.3-1.6-.5-2.4a.6.6 0 0 0-1.1.1c0 .9.1 1.7.2 2.6l-.7.2-.8.2h-.9a.9.9 0 0 0-.2 1.3c.7.9 1.8.4 2.7.1zm20 35.2l-1.4 2.2-.6-.3-.7-.3-.4-.2-.4-.2h-.1a.9.9 0 0 0-.9 1c.2 1.1 1.4 1.2 2.3 1.5l-.9 1.6a.9.9 0 1 0 1.6.9l.9-1.9 2.3.7c.8.2.9-1 .3-1.3l-1.9-.9 1-2.3a.6.6 0 0 0-1.1-.6zm-4.4-8.7l-.8-.2h-.9a.9.9 0 0 0-.8 1.1c.3 1 1.6 1 2.5 1.1l-.7 1.7a.9.9 0 1 0 1.7.6l.6-2 2.4.3c.8.1.8-1.1.1-1.3l-2.1-.6.6-2.4a.6.6 0 0 0-1.1-.4l-1 2.4zm-125-21.9l2.6-.6.3.6.3.7c.1.3.1.4.1.4a.7.7 0 0 0 .2.5.9.9 0 0 0 1.3 0c.6-.9-.1-1.9-.5-2.7l1.7-.5a.9.9 0 1 0-.5-1.7l-2 .7-1.2-2.1c-.4-.7-1.3 0-1.1.7s.5 1.3.8 2l-2.3.9a.6.6 0 0 0 .3 1.1zM5 51.6l2.2-1.4.4.5.5.6.2.3a.7.7 0 0 0 .3.4h.1a.9.9 0 0 0 1.3-.4c.3-1-.7-1.7-1.3-2.4l1.5-1a.9.9 0 1 0-1-1.5l-1.6 1.4-1.7-1.7c-.6-.5-1.3.4-.9 1l1.3 1.7-1.9 1.6a.6.6 0 0 0 .6.9zm-2.6 11l2-1.7.5.5.6.5.3.3a.7.7 0 0 0 .4.3h.1a.9.9 0 0 0 1.2-.6c.2-1.1-.9-1.6-1.7-2.1l1.3-1.2a.9.9 0 1 0-1.2-1.3l-1.4 1.4-2-1.4c-.7-.4-1.2.6-.7 1.1l1.6 1.4-1.7 2c-.5.5.2 1.2.8.8zM2 71.1L.7 73.2c-.3.6.5 1.2.9.7l1.7-2 .6.4.7.4.3.2.4.3h.1a.9.9 0 0 0 1.1-.8c0-1.1-1.2-1.4-2-1.9l1.1-1.4A.9.9 0 1 0 4.2 68L3 69.7l-2.2-1c-.8-.3-1.1.8-.5 1.2zm7.3-29.9l2.4-1 .4.6.4.7.2.4a.7.7 0 0 0 .2.4h.1a.9.9 0 0 0 1.3-.2c.5-1-.4-1.8-1-2.6l1.7-.7a.9.9 0 1 0-.8-1.6l-1.8 1-1.5-1.9c-.5-.6-1.3.2-1 .9l1.1 1.7-2.2 1.2a.6.6 0 0 0 .5 1.1zm69.8-37L77.4 3c.4-.7.7-1.4 1.1-2.2s-.9-1.1-1.3-.5l-1.1 1.8L74 .7c-.6-.3-1.2.5-.7.9l2 1.7-.4.6-.4.7-.2.3a.7.7 0 0 0-.3.4.9.9 0 0 0 .8 1.1c1.1 0 1.4-1.2 1.9-2L78 5.6a.9.9 0 1 0 1.1-1.4zm39.7 16.5l-.7-2 2.1-1.2c.7-.4 0-1.3-.7-1.1l-2 .8-.9-2.3a.6.6 0 0 0-1.1.3c.2.9.4 1.7.6 2.6l-.6.3-.7.3h-.4l-.5.2a.9.9 0 0 0 0 1.3c.9.6 1.9-.1 2.7-.5l.5 1.7a.9.9 0 1 0 1.7-.4zm5.8 103.5l-2.6.2-.2-.7-.2-.8c0-.3 0-.4-.1-.4a.7.7 0 0 0-.1-.5.9.9 0 0 0-1.3-.2c-.8.8-.2 1.9.1 2.7l-1.8.2a.9.9 0 1 0 .2 1.8l2.1-.4c.2.8.5 1.5.8 2.3s1.3.2 1.2-.5-.3-1.4-.4-2.1l2.4-.5a.6.6 0 0 0 0-1.1zm-8.6 7.4l-2.6-.2v-1.5-.4a.7.7 0 0 0 0-.5.9.9 0 0 0-1.3-.4c-.9.6-.5 1.8-.3 2.7H110a.9.9 0 1 0-.1 1.8h2.1c.1.8.2 1.6.4 2.4s1.3.4 1.3-.3 0-1.4-.1-2.1h2.5a.6.6 0 0 0 0-1.5zm15.9-16l-2.6.6-.3-.6-.3-.7c-.1-.3-.1-.4-.1-.4a.7.7 0 0 0-.2-.5.9.9 0 0 0-1.3 0c-.6.9.1 1.9.5 2.7l-1.7.5a.9.9 0 1 0 .5 1.7l2-.7 1.2 2.1c.4.7 1.3 0 1.1-.7s-.5-1.3-.8-2l2.3-.9a.6.6 0 0 0-.2-1.1zm14.9-38.4L145 76l1.4-2.1c.3-.6-.5-1.2-.9-.7l-1.7 2-.6-.4-.7-.4-.3-.2-.4-.3h-.1a.9.9 0 0 0-1.1.8c0 1.1 1.2 1.4 2 1.9l-1.1 1.4a.9.9 0 1 0 1.4 1.1l1.2-1.7 2.2 1.1c.8.3 1.1-.9.6-1.3zm-9 28.7l-2.4 1-.4-.6-.4-.7-.2-.4a.7.7 0 0 0-.2-.4h-.1a.9.9 0 0 0-1.3.2c-.5 1 .4 1.8 1 2.6l-1.7.7a.9.9 0 1 0 .8 1.6l1.8-1 1.5 1.9c.5.6 1.3-.2 1-.9l-1.1-1.8 2.2-1.2a.6.6 0 0 0-.5-.9zm6.9-21.4l-2 1.7-.5-.5-.6-.5-.3-.3a.7.7 0 0 0-.4-.3h-.1a.9.9 0 0 0-1.2.6c-.2 1.1.9 1.6 1.7 2.1l-1.3 1.3a.9.9 0 1 0 1.2 1.3l1.4-1.5 2 1.4c.7.4 1.2-.6.7-1.1l-1.6-1.4 1.7-1.8c.5-.6-.2-1.4-.7-1zM110 14.3l-1-1.8 1.9-1.5c.6-.5-.2-1.3-.9-1l-1.8 1-1.2-2.2a.6.6 0 0 0-1 .5l1 2.4-.6.4-.7.4-.4.2-.4.2a.9.9 0 0 0 .2 1.3c1 .5 1.8-.4 2.6-1l.7 1.7a.9.9 0 1 0 1.6-.6zm32.1 81.3l-2.2 1.4-.4-.5-.5-.6-.2-.3a.7.7 0 0 0-.3-.4h-.1a.9.9 0 0 0-1.3.4c-.3 1 .7 1.7 1.3 2.4l-1.5 1a.9.9 0 1 0 1 1.5l1.7-1.3 1.8 1.7c.6.5 1.3-.4.9-1l-1.5-1.9 1.9-1.6a.6.6 0 0 0-.6-.9zM89.9 5.9l-1.5-1.4 1.4-2c.4-.7-.6-1.2-1.1-.7l-1.5 1.5-1.8-1.6c-.5-.4-1.3.3-.8.8l1.7 2-.5.5-.5.6-.3.3a.7.7 0 0 0-.3.4.9.9 0 0 0 .6 1.2c1.1.2 1.6-.9 2.1-1.7l1.2 1.3a.9.9 0 1 0 1.3-1.2zm-29 136.8l.5-.5.5-.6.3-.3a.7.7 0 0 0 .3-.4.9.9 0 0 0-.6-1.2c-1.1-.2-1.6.9-2.1 1.7l-1.3-1.4a.9.9 0 1 0-1.3 1.2l1.5 1.4-1.4 2c-.4.7.6 1.2 1.1.7l1.4-1.6 1.8 1.7c.5.4 1.3-.3.8-.8zm11 1.1l.4-.6.4-.7.2-.3a.7.7 0 0 0 .3-.4.9.9 0 0 0-.8-1.1c-1.1 0-1.4 1.2-1.9 2l-1.4-1.1A.9.9 0 1 0 68 143l1.7 1.2c-.4.7-.7 1.4-1.1 2.2s.8 1.1 1.2.5l1.2-1.8 2.1 1.4c.6.3 1.2-.5.7-.9zM68.2 4.2l-1.9-.9c.3-.8.5-1.5.7-2.3s-1-1-1.3-.4-.6 1.3-.9 1.9l-2.3-1a.6.6 0 0 0-.6 1l2.2 1.4-.3.6-.3.7-.2.4a.7.7 0 0 0-.2.4.9.9 0 0 0 1 .9c1.1-.2 1.2-1.4 1.5-2.3l1.6.9a.9.9 0 1 0 1-1.3zM57.4 5.9l-2-.6c.1-.8.3-1.6.3-2.4s-1.1-.8-1.3-.1l-.6 2.1-2.4-.6a.6.6 0 0 0-.4 1.1l2.4 1-.2.7-.2.8c-.1.3-.2.4-.1.4a.7.7 0 0 0-.1.5.9.9 0 0 0 1.1.8c1-.3 1-1.6 1.1-2.5l1.7.7a.9.9 0 1 0 .7-1.9zm27.7 138.7l-2.2-1.4.3-.6.3-.7.2-.4a.7.7 0 0 0 .2-.4.9.9 0 0 0-1-.9c-1.1.2-1.2 1.4-1.5 2.3l-1.6-.9a.9.9 0 1 0-.9 1.6l1.9.9c-.3.8-.5 1.5-.7 2.3s1 .9 1.3.3.6-1.3.9-1.9l2.3 1a.6.6 0 0 0 .5-1.2zM100.3 9.3L99 7.6l1.7-1.8c.5-.6-.4-1.3-1-.9L98 6.3l-1.5-1.9a.6.6 0 0 0-1 .7l1.4 2.2-.5.4-.6.5-.3.2-.4.3a.9.9 0 0 0 .4 1.3c1 .3 1.7-.7 2.4-1.3l1 1.5a.9.9 0 1 0 1.4-.9zm-4.2 132.6l-2.4-1 .2-.7.2-.8c.1-.3.2-.4.1-.4a.7.7 0 0 0 .1-.5.9.9 0 0 0-1.1-.8c-1 .3-1 1.6-1.1 2.5l-1.7-.7a.9.9 0 1 0-.6 1.7l2 .6c-.1.8-.3 1.6-.3 2.4s1.1.8 1.3.1l.6-2.1 2.4.6a.6.6 0 0 0 .3-.9zM51.7 137c-1-.3-1.7.7-2.4 1.3l-1-1.5a.9.9 0 1 0-1.5 1l1.3 1.7-1.7 1.8c-.5.6.4 1.3 1 .9l1.7-1.3 1.6 1.9a.6.6 0 0 0 1-.7l-1.4-2.2.5-.4.6-.5.3-.2.4-.3a.9.9 0 0 0-.4-1.5zm54.8.5l-2.6-.6v-1.5c.1-.3.1-.4.1-.4a.7.7 0 0 0 .1-.5.9.9 0 0 0-1.2-.6c-1 .5-.8 1.7-.7 2.6l-1.8-.4a.9.9 0 1 0-.3 1.8l2.1.3c0 .8 0 1.6.1 2.4s1.2.6 1.3-.1.2-1.4.2-2.1l2.5.3a.6.6 0 0 0 .2-1.2z" fill=""/><path d="M18.6 112c-.6-.9-1.8-.5-2.7-.3v-1.8a.9.9 0 1 0-1.8-.1v2.1l-2.4.4c-.8.2-.4 1.3.3 1.3h2.1c0 .8.1 1.7.1 2.5a.6.6 0 0 0 1.2 0c.1-.9.2-1.7.2-2.6H18a.9.9 0 0 0 .6-1.5zm-16-26.9L4 82.9l.6.3.7.3.4.2.4.2h.1a.9.9 0 0 0 .9-1c-.2-1.1-1.4-1.2-2.3-1.5l.9-1.6a.9.9 0 1 0-1.6-.9l-.9 1.9-2.3-.7c-.8-.2-.9 1-.3 1.3l1.9.9-1 2.3a.6.6 0 0 0 1.1.5zm9.5 19h.6a.9.9 0 0 0 .6-1.2c-.5-1-1.7-.8-2.6-.7l.4-1.8a.9.9 0 1 0-1.8-.3l-.3 2.1H6.5c-.8.1-.6 1.2.1 1.3l2.1.2c-.1.8-.2 1.6-.3 2.5a.6.6 0 0 0 1.1.2c.2-.8.4-1.7.6-2.6H12zM6.9 93.8l.8.2h.9a.9.9 0 0 0 .8-1.1c-.3-1-1.6-1-2.5-1.1l.7-1.7a.9.9 0 1 0-1.7-.6l-.6 2-2.4-.3c-.8-.1-.8 1.1-.1 1.3l2.1.6-.6 2.4a.6.6 0 0 0 1.1.4l1-2.4zm15.6 26.5l-.2-1.8a.9.9 0 1 0-1.8.2l.4 2.1-2.3.8c-.8.3-.2 1.3.5 1.2l2.1-.4c.2.8.3 1.6.5 2.4a.6.6 0 0 0 1.1-.1c0-.9-.1-1.7-.2-2.6l.7-.2.8-.2h.9a.9.9 0 0 0 .2-1.3c-.7-1-1.8-.4-2.7-.1zM37.2 16a.9.9 0 1 0 .1-1.8h-2.1c-.1-.8-.2-1.6-.4-2.4s-1.3-.4-1.3.3 0 1.4.1 2.1h-2.5a.6.6 0 0 0 0 1.2l2.6.2v1.9a.7.7 0 0 0 0 .5.9.9 0 0 0 1.3.4c.9-.6.5-1.8.3-2.7zm-10.3 6.5l1.8-.2a.9.9 0 1 0-.2-1.8l-2.1.4c-.2-.8-.5-1.5-.8-2.3s-1.3-.2-1.2.5.3 1.4.4 2.1l-2.4.5a.6.6 0 0 0 .1 1.1l2.6-.2.2.7.2.8c0 .3 0 .4.1.4a.7.7 0 0 0 .1.5.9.9 0 0 0 1.3.2c.7-.7.2-1.8-.1-2.7zM42 132.8c-1-.5-1.8.4-2.6 1l-.7-1.7a.9.9 0 1 0-1.6.8l1 1.8-1.9 1.5c-.6.5.2 1.3.9 1l1.8-1.1 1.2 2.2a.6.6 0 0 0 1-.5l-1-2.4.6-.4.7-.4.4-.2.4-.2a.9.9 0 0 0-.2-1.4zm-11.6-5.1l-.5-1.7a.9.9 0 1 0-1.7.5l.7 2-2.1 1.2c-.7.4 0 1.3.7 1.1l2-.8.9 2.3a.6.6 0 0 0 1.1-.3c-.2-.9-.4-1.7-.6-2.6l.6-.3.7-.3h.4l.5-.2a.9.9 0 0 0 0-1.3c-.8-.8-1.8-.1-2.6.4zm98.1-92.6c.6.9 1.8.5 2.7.3v1.8a.9.9 0 1 0 1.8.1v-2.1l2.4-.4c.8-.2.4-1.3-.3-1.3H133c0-.8-.1-1.7-.1-2.5a.6.6 0 0 0-1.2 0c-.1.9-.2 1.7-.2 2.6H129a.9.9 0 0 0-.4 1.5zM46.7 11a.9.9 0 1 0 .3-1.8l-2.1-.3c0-.8 0-1.6-.1-2.4s-1.2-.6-1.3.1-.2 1.4-.2 2.1l-2.5-.3a.6.6 0 0 0-.2 1.1l2.6.6v1.5c-.1.3-.1.4-.1.4a.7.7 0 0 0-.1.5.9.9 0 0 0 1.2.6c1-.5.8-1.7.7-2.6zM135 43h-.6a.9.9 0 0 0-.6 1.2c.5 1 1.7.8 2.6.7l-.4 1.8a.9.9 0 1 0 1.8.3l.3-2.1h2.4c.8-.1.6-1.2-.1-1.3l-2.1-.2c.1-.8.2-1.6.3-2.5a.6.6 0 0 0-1.1-.2c-.2.8-.4 1.7-.6 2.6H135zm-10.4-16.1l.2 1.8a.9.9 0 1 0 1.8-.2l-.4-2.1 2.3-.8c.8-.3.2-1.3-.5-1.2l-2.1.4c-.2-.8-.3-1.6-.5-2.4a.6.6 0 0 0-1.1.1c0 .9.1 1.7.2 2.6l-.7.2-.8.2h-.9a.9.9 0 0 0-.2 1.3c.7.9 1.8.4 2.7.1zm20 35.2l-1.4 2.2-.6-.3-.7-.3-.4-.2-.4-.2h-.1a.9.9 0 0 0-.9 1c.2 1.1 1.4 1.2 2.3 1.5l-.9 1.6a.9.9 0 1 0 1.6.9l.9-1.9 2.3.7c.8.2.9-1 .3-1.3l-1.9-.9 1-2.3a.6.6 0 0 0-1.1-.6zm-4.4-8.7l-.8-.2h-.9a.9.9 0 0 0-.8 1.1c.3 1 1.6 1 2.5 1.1l-.7 1.7a.9.9 0 1 0 1.7.6l.6-2 2.4.3c.8.1.8-1.1.1-1.3l-2.1-.6.6-2.4a.6.6 0 0 0-1.1-.4l-1 2.4zm-125-21.9l2.6-.6.3.6.3.7c.1.3.1.4.1.4a.7.7 0 0 0 .2.5.9.9 0 0 0 1.3 0c.6-.9-.1-1.9-.5-2.7l1.7-.5a.9.9 0 1 0-.5-1.7l-2 .7-1.2-2.1c-.4-.7-1.3 0-1.1.7s.5 1.3.8 2l-2.3.9a.6.6 0 0 0 .3 1.1zM5 51.6l2.2-1.4.4.5.5.6.2.3a.7.7 0 0 0 .3.4h.1a.9.9 0 0 0 1.3-.4c.3-1-.7-1.7-1.3-2.4l1.5-1a.9.9 0 1 0-1-1.5l-1.6 1.4-1.7-1.7c-.6-.5-1.3.4-.9 1l1.3 1.7-1.9 1.6a.6.6 0 0 0 .6.9zm-2.6 11l2-1.7.5.5.6.5.3.3a.7.7 0 0 0 .4.3h.1a.9.9 0 0 0 1.2-.6c.2-1.1-.9-1.6-1.7-2.1l1.3-1.2a.9.9 0 1 0-1.2-1.3l-1.4 1.4-2-1.4c-.7-.4-1.2.6-.7 1.1l1.6 1.4-1.7 2c-.5.5.2 1.2.8.8zM2 71.1L.7 73.2c-.3.6.5 1.2.9.7l1.7-2 .6.4.7.4.3.2.4.3h.1a.9.9 0 0 0 1.1-.8c0-1.1-1.2-1.4-2-1.9l1.1-1.4A.9.9 0 1 0 4.2 68L3 69.7l-2.2-1c-.8-.3-1.1.8-.5 1.2zm7.3-29.9l2.4-1 .4.6.4.7.2.4a.7.7 0 0 0 .2.4h.1a.9.9 0 0 0 1.3-.2c.5-1-.4-1.8-1-2.6l1.7-.7a.9.9 0 1 0-.8-1.6l-1.8 1-1.5-1.9c-.5-.6-1.3.2-1 .9l1.1 1.7-2.2 1.2a.6.6 0 0 0 .5 1.1zm69.8-37L77.4 3c.4-.7.7-1.4 1.1-2.2s-.9-1.1-1.3-.5l-1.1 1.8L74 .7c-.6-.3-1.2.5-.7.9l2 1.7-.4.6-.4.7-.2.3a.7.7 0 0 0-.3.4.9.9 0 0 0 .8 1.1c1.1 0 1.4-1.2 1.9-2L78 5.6a.9.9 0 1 0 1.1-1.4zm39.7 16.5l-.7-2 2.1-1.2c.7-.4 0-1.3-.7-1.1l-2 .8-.9-2.3a.6.6 0 0 0-1.1.3c.2.9.4 1.7.6 2.6l-.6.3-.7.3h-.4l-.5.2a.9.9 0 0 0 0 1.3c.9.6 1.9-.1 2.7-.5l.5 1.7a.9.9 0 1 0 1.7-.4zm5.8 103.5l-2.6.2-.2-.7-.2-.8c0-.3 0-.4-.1-.4a.7.7 0 0 0-.1-.5.9.9 0 0 0-1.3-.2c-.8.8-.2 1.9.1 2.7l-1.8.2a.9.9 0 1 0 .2 1.8l2.1-.4c.2.8.5 1.5.8 2.3s1.3.2 1.2-.5-.3-1.4-.4-2.1l2.4-.5a.6.6 0 0 0 0-1.1zm-8.6 7.4l-2.6-.2v-1.5-.4a.7.7 0 0 0 0-.5.9.9 0 0 0-1.3-.4c-.9.6-.5 1.8-.3 2.7H110a.9.9 0 1 0-.1 1.8h2.1c.1.8.2 1.6.4 2.4s1.3.4 1.3-.3 0-1.4-.1-2.1h2.5a.6.6 0 0 0 0-1.5zm15.9-16l-2.6.6-.3-.6-.3-.7c-.1-.3-.1-.4-.1-.4a.7.7 0 0 0-.2-.5.9.9 0 0 0-1.3 0c-.6.9.1 1.9.5 2.7l-1.7.5a.9.9 0 1 0 .5 1.7l2-.7 1.2 2.1c.4.7 1.3 0 1.1-.7s-.5-1.3-.8-2l2.3-.9a.6.6 0 0 0-.2-1.1zm14.9-38.4L145 76l1.4-2.1c.3-.6-.5-1.2-.9-.7l-1.7 2-.6-.4-.7-.4-.3-.2-.4-.3h-.1a.9.9 0 0 0-1.1.8c0 1.1 1.2 1.4 2 1.9l-1.1 1.4a.9.9 0 1 0 1.4 1.1l1.2-1.7 2.2 1.1c.8.3 1.1-.9.6-1.3zm-9 28.7l-2.4 1-.4-.6-.4-.7-.2-.4a.7.7 0 0 0-.2-.4h-.1a.9.9 0 0 0-1.3.2c-.5 1 .4 1.8 1 2.6l-1.7.7a.9.9 0 1 0 .8 1.6l1.8-1 1.5 1.9c.5.6 1.3-.2 1-.9l-1.1-1.8 2.2-1.2a.6.6 0 0 0-.5-.9zm6.9-21.4l-2 1.7-.5-.5-.6-.5-.3-.3a.7.7 0 0 0-.4-.3h-.1a.9.9 0 0 0-1.2.6c-.2 1.1.9 1.6 1.7 2.1l-1.3 1.3a.9.9 0 1 0 1.2 1.3l1.4-1.5 2 1.4c.7.4 1.2-.6.7-1.1l-1.6-1.4 1.7-1.8c.5-.6-.2-1.4-.7-1zM110 14.3l-1-1.8 1.9-1.5c.6-.5-.2-1.3-.9-1l-1.8 1-1.2-2.2a.6.6 0 0 0-1 .5l1 2.4-.6.4-.7.4-.4.2-.4.2a.9.9 0 0 0 .2 1.3c1 .5 1.8-.4 2.6-1l.7 1.7a.9.9 0 1 0 1.6-.6zm32.1 81.3l-2.2 1.4-.4-.5-.5-.6-.2-.3a.7.7 0 0 0-.3-.4h-.1a.9.9 0 0 0-1.3.4c-.3 1 .7 1.7 1.3 2.4l-1.5 1a.9.9 0 1 0 1 1.5l1.7-1.3 1.8 1.7c.6.5 1.3-.4.9-1l-1.5-1.9 1.9-1.6a.6.6 0 0 0-.6-.9zM89.9 5.9l-1.5-1.4 1.4-2c.4-.7-.6-1.2-1.1-.7l-1.5 1.5-1.8-1.6c-.5-.4-1.3.3-.8.8l1.7 2-.5.5-.5.6-.3.3a.7.7 0 0 0-.3.4.9.9 0 0 0 .6 1.2c1.1.2 1.6-.9 2.1-1.7l1.2 1.3a.9.9 0 1 0 1.3-1.2zm-29 136.8l.5-.5.5-.6.3-.3a.7.7 0 0 0 .3-.4.9.9 0 0 0-.6-1.2c-1.1-.2-1.6.9-2.1 1.7l-1.3-1.4a.9.9 0 1 0-1.3 1.2l1.5 1.4-1.4 2c-.4.7.6 1.2 1.1.7l1.4-1.6 1.8 1.7c.5.4 1.3-.3.8-.8zm11 1.1l.4-.6.4-.7.2-.3a.7.7 0 0 0 .3-.4.9.9 0 0 0-.8-1.1c-1.1 0-1.4 1.2-1.9 2l-1.4-1.1A.9.9 0 1 0 68 143l1.7 1.2c-.4.7-.7 1.4-1.1 2.2s.8 1.1 1.2.5l1.2-1.8 2.1 1.4c.6.3 1.2-.5.7-.9zM68.2 4.2l-1.9-.9c.3-.8.5-1.5.7-2.3s-1-1-1.3-.4-.6 1.3-.9 1.9l-2.3-1a.6.6 0 0 0-.6 1l2.2 1.4-.3.6-.3.7-.2.4a.7.7 0 0 0-.2.4.9.9 0 0 0 1 .9c1.1-.2 1.2-1.4 1.5-2.3l1.6.9a.9.9 0 1 0 1-1.3zM57.4 5.9l-2-.6c.1-.8.3-1.6.3-2.4s-1.1-.8-1.3-.1l-.6 2.1-2.4-.6a.6.6 0 0 0-.4 1.1l2.4 1-.2.7-.2.8c-.1.3-.2.4-.1.4a.7.7 0 0 0-.1.5.9.9 0 0 0 1.1.8c1-.3 1-1.6 1.1-2.5l1.7.7a.9.9 0 1 0 .7-1.9zm27.7 138.7l-2.2-1.4.3-.6.3-.7.2-.4a.7.7 0 0 0 .2-.4.9.9 0 0 0-1-.9c-1.1.2-1.2 1.4-1.5 2.3l-1.6-.9a.9.9 0 1 0-.9 1.6l1.9.9c-.3.8-.5 1.5-.7 2.3s1 .9 1.3.3.6-1.3.9-1.9l2.3 1a.6.6 0 0 0 .5-1.2zM100.3 9.3L99 7.6l1.7-1.8c.5-.6-.4-1.3-1-.9L98 6.3l-1.5-1.9a.6.6 0 0 0-1 .7l1.4 2.2-.5.4-.6.5-.3.2-.4.3a.9.9 0 0 0 .4 1.3c1 .3 1.7-.7 2.4-1.3l1 1.5a.9.9 0 1 0 1.4-.9zm-4.2 132.6l-2.4-1 .2-.7.2-.8c.1-.3.2-.4.1-.4a.7.7 0 0 0 .1-.5.9.9 0 0 0-1.1-.8c-1 .3-1 1.6-1.1 2.5l-1.7-.7a.9.9 0 1 0-.6 1.7l2 .6c-.1.8-.3 1.6-.3 2.4s1.1.8 1.3.1l.6-2.1 2.4.6a.6.6 0 0 0 .3-.9zM51.7 137c-1-.3-1.7.7-2.4 1.3l-1-1.5a.9.9 0 1 0-1.5 1l1.3 1.7-1.7 1.8c-.5.6.4 1.3 1 .9l1.7-1.3 1.6 1.9a.6.6 0 0 0 1-.7l-1.4-2.2.5-.4.6-.5.3-.2.4-.3a.9.9 0 0 0-.4-1.5zm54.8.5l-2.6-.6v-1.5c.1-.3.1-.4.1-.4a.7.7 0 0 0 .1-.5.9.9 0 0 0-1.2-.6c-1 .5-.8 1.7-.7 2.6l-1.8-.4a.9.9 0 1 0-.3 1.8l2.1.3c0 .8 0 1.6.1 2.4s1.2.6 1.3-.1.2-1.4.2-2.1l2.5.3a.6.6 0 0 0 .2-1.2z" fill="none"/><path d="M18.6 112c-.6-.9-1.8-.5-2.7-.3v-1.8a.9.9 0 1 0-1.8-.1v2.1l-2.4.4c-.8.2-.4 1.3.3 1.3h2.1c0 .8.1 1.7.1 2.5a.6.6 0 0 0 1.2 0c.1-.9.2-1.7.2-2.6H18a.9.9 0 0 0 .6-1.5zm-16-26.9L4 82.9l.6.3.7.3.4.2.4.2h.1a.9.9 0 0 0 .9-1c-.2-1.1-1.4-1.2-2.3-1.5l.9-1.6a.9.9 0 1 0-1.6-.9l-.9 1.9-2.3-.7c-.8-.2-.9 1-.3 1.3l1.9.9-1 2.3a.6.6 0 0 0 1.1.5zm9.5 19h.6a.9.9 0 0 0 .6-1.2c-.5-1-1.7-.8-2.6-.7l.4-1.8a.9.9 0 1 0-1.8-.3l-.3 2.1H6.5c-.8.1-.6 1.2.1 1.3l2.1.2c-.1.8-.2 1.6-.3 2.5a.6.6 0 0 0 1.1.2c.2-.8.4-1.7.6-2.6H12zM6.9 93.8l.8.2h.9a.9.9 0 0 0 .8-1.1c-.3-1-1.6-1-2.5-1.1l.7-1.7a.9.9 0 1 0-1.7-.6l-.6 2-2.4-.3c-.8-.1-.8 1.1-.1 1.3l2.1.6-.6 2.4a.6.6 0 0 0 1.1.4l1-2.4zm15.6 26.5l-.2-1.8a.9.9 0 1 0-1.8.2l.4 2.1-2.3.8c-.8.3-.2 1.3.5 1.2l2.1-.4c.2.8.3 1.6.5 2.4a.6.6 0 0 0 1.1-.1c0-.9-.1-1.7-.2-2.6l.7-.2.8-.2h.9a.9.9 0 0 0 .2-1.3c-.7-1-1.8-.4-2.7-.1zM37.2 16a.9.9 0 1 0 .1-1.8h-2.1c-.1-.8-.2-1.6-.4-2.4s-1.3-.4-1.3.3 0 1.4.1 2.1h-2.5a.6.6 0 0 0 0 1.2l2.6.2v1.9a.7.7 0 0 0 0 .5.9.9 0 0 0 1.3.4c.9-.6.5-1.8.3-2.7zm-10.3 6.5l1.8-.2a.9.9 0 1 0-.2-1.8l-2.1.4c-.2-.8-.5-1.5-.8-2.3s-1.3-.2-1.2.5.3 1.4.4 2.1l-2.4.5a.6.6 0 0 0 .1 1.1l2.6-.2.2.7.2.8c0 .3 0 .4.1.4a.7.7 0 0 0 .1.5.9.9 0 0 0 1.3.2c.7-.7.2-1.8-.1-2.7zM42 132.8c-1-.5-1.8.4-2.6 1l-.7-1.7a.9.9 0 1 0-1.6.8l1 1.8-1.9 1.5c-.6.5.2 1.3.9 1l1.8-1.1 1.2 2.2a.6.6 0 0 0 1-.5l-1-2.4.6-.4.7-.4.4-.2.4-.2a.9.9 0 0 0-.2-1.4zm-11.6-5.1l-.5-1.7a.9.9 0 1 0-1.7.5l.7 2-2.1 1.2c-.7.4 0 1.3.7 1.1l2-.8.9 2.3a.6.6 0 0 0 1.1-.3c-.2-.9-.4-1.7-.6-2.6l.6-.3.7-.3h.4l.5-.2a.9.9 0 0 0 0-1.3c-.8-.8-1.8-.1-2.6.4zm98.1-92.6c.6.9 1.8.5 2.7.3v1.8a.9.9 0 1 0 1.8.1v-2.1l2.4-.4c.8-.2.4-1.3-.3-1.3H133c0-.8-.1-1.7-.1-2.5a.6.6 0 0 0-1.2 0c-.1.9-.2 1.7-.2 2.6H129a.9.9 0 0 0-.4 1.5zM46.7 11a.9.9 0 1 0 .3-1.8l-2.1-.3c0-.8 0-1.6-.1-2.4s-1.2-.6-1.3.1-.2 1.4-.2 2.1l-2.5-.3a.6.6 0 0 0-.2 1.1l2.6.6v1.5c-.1.3-.1.4-.1.4a.7.7 0 0 0-.1.5.9.9 0 0 0 1.2.6c1-.5.8-1.7.7-2.6zM135 43h-.6a.9.9 0 0 0-.6 1.2c.5 1 1.7.8 2.6.7l-.4 1.8a.9.9 0 1 0 1.8.3l.3-2.1h2.4c.8-.1.6-1.2-.1-1.3l-2.1-.2c.1-.8.2-1.6.3-2.5a.6.6 0 0 0-1.1-.2c-.2.8-.4 1.7-.6 2.6H135zm-10.4-16.1l.2 1.8a.9.9 0 1 0 1.8-.2l-.4-2.1 2.3-.8c.8-.3.2-1.3-.5-1.2l-2.1.4c-.2-.8-.3-1.6-.5-2.4a.6.6 0 0 0-1.1.1c0 .9.1 1.7.2 2.6l-.7.2-.8.2h-.9a.9.9 0 0 0-.2 1.3c.7.9 1.8.4 2.7.1zm20 35.2l-1.4 2.2-.6-.3-.7-.3-.4-.2-.4-.2h-.1a.9.9 0 0 0-.9 1c.2 1.1 1.4 1.2 2.3 1.5l-.9 1.6a.9.9 0 1 0 1.6.9l.9-1.9 2.3.7c.8.2.9-1 .3-1.3l-1.9-.9 1-2.3a.6.6 0 0 0-1.1-.6zm-4.4-8.7l-.8-.2h-.9a.9.9 0 0 0-.8 1.1c.3 1 1.6 1 2.5 1.1l-.7 1.7a.9.9 0 1 0 1.7.6l.6-2 2.4.3c.8.1.8-1.1.1-1.3l-2.1-.6.6-2.4a.6.6 0 0 0-1.1-.4l-1 2.4zm-125-21.9l2.6-.6.3.6.3.7c.1.3.1.4.1.4a.7.7 0 0 0 .2.5.9.9 0 0 0 1.3 0c.6-.9-.1-1.9-.5-2.7l1.7-.5a.9.9 0 1 0-.5-1.7l-2 .7-1.2-2.1c-.4-.7-1.3 0-1.1.7s.5 1.3.8 2l-2.3.9a.6.6 0 0 0 .3 1.1zM5 51.6l2.2-1.4.4.5.5.6.2.3a.7.7 0 0 0 .3.4h.1a.9.9 0 0 0 1.3-.4c.3-1-.7-1.7-1.3-2.4l1.5-1a.9.9 0 1 0-1-1.5l-1.6 1.4-1.7-1.7c-.6-.5-1.3.4-.9 1l1.3 1.7-1.9 1.6a.6.6 0 0 0 .6.9zm-2.6 11l2-1.7.5.5.6.5.3.3a.7.7 0 0 0 .4.3h.1a.9.9 0 0 0 1.2-.6c.2-1.1-.9-1.6-1.7-2.1l1.3-1.2a.9.9 0 1 0-1.2-1.3l-1.4 1.4-2-1.4c-.7-.4-1.2.6-.7 1.1l1.6 1.4-1.7 2c-.5.5.2 1.2.8.8zM2 71.1L.7 73.2c-.3.6.5 1.2.9.7l1.7-2 .6.4.7.4.3.2.4.3h.1a.9.9 0 0 0 1.1-.8c0-1.1-1.2-1.4-2-1.9l1.1-1.4A.9.9 0 1 0 4.2 68L3 69.7l-2.2-1c-.8-.3-1.1.8-.5 1.2zm7.3-29.9l2.4-1 .4.6.4.7.2.4a.7.7 0 0 0 .2.4h.1a.9.9 0 0 0 1.3-.2c.5-1-.4-1.8-1-2.6l1.7-.7a.9.9 0 1 0-.8-1.6l-1.8 1-1.5-1.9c-.5-.6-1.3.2-1 .9l1.1 1.7-2.2 1.2a.6.6 0 0 0 .5 1.1zm69.8-37L77.4 3c.4-.7.7-1.4 1.1-2.2s-.9-1.1-1.3-.5l-1.1 1.8L74 .7c-.6-.3-1.2.5-.7.9l2 1.7-.4.6-.4.7-.2.3a.7.7 0 0 0-.3.4.9.9 0 0 0 .8 1.1c1.1 0 1.4-1.2 1.9-2L78 5.6a.9.9 0 1 0 1.1-1.4zm39.7 16.5l-.7-2 2.1-1.2c.7-.4 0-1.3-.7-1.1l-2 .8-.9-2.3a.6.6 0 0 0-1.1.3c.2.9.4 1.7.6 2.6l-.6.3-.7.3h-.4l-.5.2a.9.9 0 0 0 0 1.3c.9.6 1.9-.1 2.7-.5l.5 1.7a.9.9 0 1 0 1.7-.4zm5.8 103.5l-2.6.2-.2-.7-.2-.8c0-.3 0-.4-.1-.4a.7.7 0 0 0-.1-.5.9.9 0 0 0-1.3-.2c-.8.8-.2 1.9.1 2.7l-1.8.2a.9.9 0 1 0 .2 1.8l2.1-.4c.2.8.5 1.5.8 2.3s1.3.2 1.2-.5-.3-1.4-.4-2.1l2.4-.5a.6.6 0 0 0 0-1.1zm-8.6 7.4l-2.6-.2v-1.5-.4a.7.7 0 0 0 0-.5.9.9 0 0 0-1.3-.4c-.9.6-.5 1.8-.3 2.7H110a.9.9 0 1 0-.1 1.8h2.1c.1.8.2 1.6.4 2.4s1.3.4 1.3-.3 0-1.4-.1-2.1h2.5a.6.6 0 0 0 0-1.5zm15.9-16l-2.6.6-.3-.6-.3-.7c-.1-.3-.1-.4-.1-.4a.7.7 0 0 0-.2-.5.9.9 0 0 0-1.3 0c-.6.9.1 1.9.5 2.7l-1.7.5a.9.9 0 1 0 .5 1.7l2-.7 1.2 2.1c.4.7 1.3 0 1.1-.7s-.5-1.3-.8-2l2.3-.9a.6.6 0 0 0-.2-1.1zm14.9-38.4L145 76l1.4-2.1c.3-.6-.5-1.2-.9-.7l-1.7 2-.6-.4-.7-.4-.3-.2-.4-.3h-.1a.9.9 0 0 0-1.1.8c0 1.1 1.2 1.4 2 1.9l-1.1 1.4a.9.9 0 1 0 1.4 1.1l1.2-1.7 2.2 1.1c.8.3 1.1-.9.6-1.3zm-9 28.7l-2.4 1-.4-.6-.4-.7-.2-.4a.7.7 0 0 0-.2-.4h-.1a.9.9 0 0 0-1.3.2c-.5 1 .4 1.8 1 2.6l-1.7.7a.9.9 0 1 0 .8 1.6l1.8-1 1.5 1.9c.5.6 1.3-.2 1-.9l-1.1-1.8 2.2-1.2a.6.6 0 0 0-.5-.9zm6.9-21.4l-2 1.7-.5-.5-.6-.5-.3-.3a.7.7 0 0 0-.4-.3h-.1a.9.9 0 0 0-1.2.6c-.2 1.1.9 1.6 1.7 2.1l-1.3 1.3a.9.9 0 1 0 1.2 1.3l1.4-1.5 2 1.4c.7.4 1.2-.6.7-1.1l-1.6-1.4 1.7-1.8c.5-.6-.2-1.4-.7-1zM110 14.3l-1-1.8 1.9-1.5c.6-.5-.2-1.3-.9-1l-1.8 1-1.2-2.2a.6.6 0 0 0-1 .5l1 2.4-.6.4-.7.4-.4.2-.4.2a.9.9 0 0 0 .2 1.3c1 .5 1.8-.4 2.6-1l.7 1.7a.9.9 0 1 0 1.6-.6zm32.1 81.3l-2.2 1.4-.4-.5-.5-.6-.2-.3a.7.7 0 0 0-.3-.4h-.1a.9.9 0 0 0-1.3.4c-.3 1 .7 1.7 1.3 2.4l-1.5 1a.9.9 0 1 0 1 1.5l1.7-1.3 1.8 1.7c.6.5 1.3-.4.9-1l-1.5-1.9 1.9-1.6a.6.6 0 0 0-.6-.9zM89.9 5.9l-1.5-1.4 1.4-2c.4-.7-.6-1.2-1.1-.7l-1.5 1.5-1.8-1.6c-.5-.4-1.3.3-.8.8l1.7 2-.5.5-.5.6-.3.3a.7.7 0 0 0-.3.4.9.9 0 0 0 .6 1.2c1.1.2 1.6-.9 2.1-1.7l1.2 1.3a.9.9 0 1 0 1.3-1.2zm-29 136.8l.5-.5.5-.6.3-.3a.7.7 0 0 0 .3-.4.9.9 0 0 0-.6-1.2c-1.1-.2-1.6.9-2.1 1.7l-1.3-1.4a.9.9 0 1 0-1.3 1.2l1.5 1.4-1.4 2c-.4.7.6 1.2 1.1.7l1.4-1.6 1.8 1.7c.5.4 1.3-.3.8-.8zm11 1.1l.4-.6.4-.7.2-.3a.7.7 0 0 0 .3-.4.9.9 0 0 0-.8-1.1c-1.1 0-1.4 1.2-1.9 2l-1.4-1.1A.9.9 0 1 0 68 143l1.7 1.2c-.4.7-.7 1.4-1.1 2.2s.8 1.1 1.2.5l1.2-1.8 2.1 1.4c.6.3 1.2-.5.7-.9zM68.2 4.2l-1.9-.9c.3-.8.5-1.5.7-2.3s-1-1-1.3-.4-.6 1.3-.9 1.9l-2.3-1a.6.6 0 0 0-.6 1l2.2 1.4-.3.6-.3.7-.2.4a.7.7 0 0 0-.2.4.9.9 0 0 0 1 .9c1.1-.2 1.2-1.4 1.5-2.3l1.6.9a.9.9 0 1 0 1-1.3zM57.4 5.9l-2-.6c.1-.8.3-1.6.3-2.4s-1.1-.8-1.3-.1l-.6 2.1-2.4-.6a.6.6 0 0 0-.4 1.1l2.4 1-.2.7-.2.8c-.1.3-.2.4-.1.4a.7.7 0 0 0-.1.5.9.9 0 0 0 1.1.8c1-.3 1-1.6 1.1-2.5l1.7.7a.9.9 0 1 0 .7-1.9zm27.7 138.7l-2.2-1.4.3-.6.3-.7.2-.4a.7.7 0 0 0 .2-.4.9.9 0 0 0-1-.9c-1.1.2-1.2 1.4-1.5 2.3l-1.6-.9a.9.9 0 1 0-.9 1.6l1.9.9c-.3.8-.5 1.5-.7 2.3s1 .9 1.3.3.6-1.3.9-1.9l2.3 1a.6.6 0 0 0 .5-1.2zM100.3 9.3L99 7.6l1.7-1.8c.5-.6-.4-1.3-1-.9L98 6.3l-1.5-1.9a.6.6 0 0 0-1 .7l1.4 2.2-.5.4-.6.5-.3.2-.4.3a.9.9 0 0 0 .4 1.3c1 .3 1.7-.7 2.4-1.3l1 1.5a.9.9 0 1 0 1.4-.9zm-4.2 132.6l-2.4-1 .2-.7.2-.8c.1-.3.2-.4.1-.4a.7.7 0 0 0 .1-.5.9.9 0 0 0-1.1-.8c-1 .3-1 1.6-1.1 2.5l-1.7-.7a.9.9 0 1 0-.6 1.7l2 .6c-.1.8-.3 1.6-.3 2.4s1.1.8 1.3.1l.6-2.1 2.4.6a.6.6 0 0 0 .3-.9zM51.7 137c-1-.3-1.7.7-2.4 1.3l-1-1.5a.9.9 0 1 0-1.5 1l1.3 1.7-1.7 1.8c-.5.6.4 1.3 1 .9l1.7-1.3 1.6 1.9a.6.6 0 0 0 1-.7l-1.4-2.2.5-.4.6-.5.3-.2.4-.3a.9.9 0 0 0-.4-1.5zm54.8.5l-2.6-.6v-1.5c.1-.3.1-.4.1-.4a.7.7 0 0 0 .1-.5.9.9 0 0 0-1.2-.6c-1 .5-.8 1.7-.7 2.6l-1.8-.4a.9.9 0 1 0-.3 1.8l2.1.3c0 .8 0 1.6.1 2.4s1.2.6 1.3-.1.2-1.4.2-2.1l2.5.3a.6.6 0 0 0 .2-1.2z" fill="none"/></g><g id="main_text" rel="mainfill" name="main_text" feature="main_text" xmlns:name="mainText_mainfill" groupName="main_text" fill="#ffffff" transform="translate(26.000007581708005, 28.061204009070437) scale(3.19999881291592)"><path d="M0.38086 3.418375000000001 l3.9746 0 q3.984375 0 5.380859375 2.880859375 q0.546875 1.279296875 0.546875 2.509765625 l0 0.70313 q0 2.353515625 -1.845703125 3.75 q1.181640625 0.60546875 1.845703125 2.34375 q0.380859375 1.181640625 0.380859375 2.119140625 l0 0.76172 q0 3.837890625 -3.369140625 5.283203125 q-0.791015625 0.21484375 -1.201171875 0.21484375 l-5.8789 0 q-0.21484375 -0.09765625 -0.21484375 -0.380859375 l0 -19.697 q0 -0.48828125 0.380859375 -0.48828125 z M0.27344 3.6913750000000007 l0 0.32227 q1.416015625 1.630859375 1.416015625 2.55859375 l0 0.71289 q-0.341796875 0.4296875 -0.546875 0.4296875 q-0.3125 -1.943359375 -0.8203125 -2.666015625 l-0.048828 0 l0 0.38086 q0.595703125 1.357421875 0.595703125 2.392578125 l0 0.10742 q0 0.33203125 -0.322265625 0.439453125 q-0.224609375 -0.6640625 -0.224609375 -0.76171875 l-0.048828 0 l0 0.21484 l0.048828 0.6543 q-0.048828125 0.302734375 -0.048828125 0.595703125 l0.048828 0 q1.416015625 -0.83984375 2.83203125 -0.9765625 l0.33203 0 l0 -0.32227 q-0.3125 0.15625 -1.5234375 0.380859375 q-0.01953125 0.048828125 -1.142578125 0.4296875 l0 -0.048828 q1.279296875 -1.484375 2.880859375 -2.6171875 q1.552734375 -1.142578125 3.26171875 -1.73828125 l0.10742 0 l0 -0.10742 q-0.15625 0 -0.537109375 -0.166015625 l0.048828 0.10742 l0 0.058594 q-0.595703125 0.4296875 -0.927734375 0.4296875 l-0.048828 0 q0 -0.15625 -0.166015625 -0.810546875 l-0.21484 0 l0 0.048828 q0 0.166015625 0.21484375 0.8203125 q-0.185546875 0.2734375 -0.654296875 0.2734375 q-0.107421875 -0.595703125 -0.2734375 -1.142578125 l-0.26367 0 l0 0.048828 q0.15625 0.234375 0.322265625 1.09375 q0 0.3125 -0.380859375 0.546875 q-0.107421875 -0.1953125 -0.380859375 -1.416015625 q-0.166015625 -0.2734375 -0.21484375 -0.2734375 l-0.27344 0 l0 0.048828 q0.546875 0.68359375 0.546875 1.640625 q0 0.33203125 -0.498046875 0.537109375 q0 -1.357421875 -0.810546875 -2.2265625 l-0.27344 0 q0.869140625 0.9765625 0.869140625 1.953125 q0 0.5859375 -0.48828125 0.8203125 l-0.10742 0 l0 -0.21484 q0 -1.23046875 -1.201171875 -2.509765625 l0 -0.048828 l-0.48828 0 q1.5234375 1.30859375 1.5234375 2.666015625 q0 0.48828125 -0.322265625 0.654296875 l-0.10742 0 q0 -1.591796875 -1.640625 -3.3203125 l-0.048828 0 z M5.8203 3.798375 q0.09765625 0.439453125 0.21484375 0.439453125 q0.05859375 -0.1171875 0.05859375 -0.166015625 q0 -0.33203125 -0.2734375 -0.33203125 l0 0.058594 z M4.9512 6.679375 l0 0.058594 q0.2734375 0 0.2734375 0.048828125 q1.484375 -0.849609375 3.53515625 -1.5234375 l-0.10742 -0.15625 q-1.591796875 0.537109375 -3.701171875 1.572265625 z M6.0352 7.0603750000000005 l0.11719 0.16602 q1.904296875 -0.9765625 3.095703125 -1.30859375 l0 -0.10742 l-0.048828 0 q-0.60546875 0 -3.1640625 1.25 z M6.582 7.7733750000000015 q0.05859375 0.107421875 0.05859375 0.15625 q2.509765625 -1.19140625 2.98828125 -1.19140625 l0 -0.16602 l-0.048828 0 q-1.591796875 0.48828125 -2.998046875 1.201171875 z M3.75 6.953375000000001 l0 4.6777 l1.3086 0 q1.201171875 0 1.5234375 -1.73828125 q0.05859375 -0.05859375 0.05859375 -0.439453125 l0 -0.26367 q0 -1.884765625 -1.474609375 -2.236328125 l-1.416 0 z M6.8555 8.584375 l0 0.22461 q1.1328125 0.419921875 2.98828125 2.01171875 l0.058594 0 l0 -0.22461 l-0.10742 -0.15625 l0.21484 -0.27344 l0 -0.10742 l-0.048828 0 q-0.2734375 0.15625 -0.546875 0.15625 q-0.33203125 -0.185546875 -0.33203125 -0.263671875 l0 -0.11719 q0.986328125 -0.44921875 0.986328125 -0.537109375 l0 -0.10742 q-0.537109375 0.15625 -1.25 0.537109375 l-0.11719 0 q-0.537109375 -0.322265625 -0.537109375 -0.537109375 l0.048828 0 q0.9375 -0.60546875 1.85546875 -0.60546875 q-0.05859375 -0.56640625 -0.166015625 -1.03515625 q-0.80078125 0 -3.046875 1.03515625 z M9.8438 7.7733750000000015 q0 0.703125 -0.48828125 0.703125 q-1.279296875 0.546875 -1.630859375 0.546875 q-0.361328125 -0.21484375 -0.4296875 -0.21484375 l0 -0.058594 q1.083984375 -0.869140625 2.333984375 -0.9765625 l0.21484 0 z M0.27344 10.332375 l0 0.32227 q0.8984375 0.107421875 2.7734375 1.962890625 q1.03515625 1.044921875 1.03515625 1.46484375 l0 0.058594 q-1.07421875 -0.234375 -1.25 -0.33203125 q-2.16796875 -1.73828125 -2.55859375 -1.73828125 l0 0.048828 q1.03515625 0.654296875 2.0703125 1.5234375 l0.15625 0.22461 l0 0.048828 q0 0.107421875 -0.322265625 0.224609375 q-1.201171875 -1.19140625 -1.904296875 -1.3671875 l0 0.22461 q1.630859375 0.732421875 1.630859375 1.298828125 l0 0.058594 q0 0.107421875 -0.107421875 0.107421875 q-1.34765625 -0.869140625 -1.5234375 -0.869140625 l0 0.10742 q0.830078125 0.5078125 1.357421875 0.9765625 l1.3574 1.6895 q0.09765625 0.3125 0.380859375 0.595703125 l0.11719 0 l0 -0.15625 q-0.87890625 -1.2109375 -0.87890625 -1.3671875 l0.11719 0 q0.380859375 0 0.703125 0.927734375 l0.058594 0 l0 -0.38086 q-0.224609375 -0.3125 -0.224609375 -0.48828125 q0.09765625 -0.05859375 0.224609375 -0.05859375 l0 -0.27344 l-0.058594 0 q-0.3515625 0.1171875 -0.48828125 0.1171875 q-0.9765625 0 -0.9765625 -0.60546875 q0.3515625 -0.595703125 0.810546875 -0.595703125 q0 0.078125 0.166015625 0.166015625 l0.16602 -0.10742 l0.21484 0 q0.595703125 0 1.142578125 0.64453125 l0.42969 0 l0 -0.048828 q-0.322265625 0 -0.322265625 -0.380859375 l-0.058594 -0.33203 q1.03515625 0 2.939453125 1.474609375 q0.439453125 0.4296875 0.439453125 0.595703125 q-0.3125 0.2734375 -0.546875 0.2734375 q-0.009765625 -0.078125 -0.546875 -0.48828125 l-0.048828 0 q0.166015625 0.361328125 0.380859375 0.595703125 l0 0.10742 q0 0.107421875 -0.107421875 0.107421875 q0 0.439453125 0.48828125 0.439453125 q1.669921875 0.5078125 2.880859375 1.689453125 l0.058594 0 l0 -0.16602 q0 -0.078125 -0.166015625 -0.166015625 l0.16602 -0.27344 l0 -0.21484 q-0.05859375 0 -0.33203125 0.21484375 l-0.10742 0 q-0.3125 -0.17578125 -0.4296875 -0.380859375 l0 -0.048828 q0.44921875 -0.380859375 0.869140625 -0.380859375 l0 -0.058594 q0 -0.107421875 -0.107421875 -0.107421875 q-0.712890625 0.21484375 -1.09375 0.380859375 l-1.9043 -0.76172 l0 -0.048828 q0.419921875 -0.693359375 2.6171875 -1.3671875 l0 -0.048828 q0 -0.126953125 -0.712890625 -0.439453125 q-3.017578125 -3.046875 -5.2734375 -3.046875 l-0.71289 0 q-0.185546875 0 -0.48828125 0.05859375 q-0.380859375 -0.13671875 -0.380859375 -0.380859375 q0.41015625 -0.2734375 1.09375 -0.2734375 l0 -0.16602 l-0.11719 0 q-0.48828125 0 -1.298828125 0.2734375 q-0.263671875 0 -0.48828125 -0.439453125 q0 -0.29296875 1.904296875 -0.64453125 l0 -0.16602 l-0.058594 0 q-0.732421875 0 -2.28515625 0.703125 l-0.48828 -0.27344 q0.234375 -0.732421875 2.83203125 -0.9765625 l0 -0.16602 l-0.058594 0 q-1.73828125 0 -2.98828125 0.87890625 l-0.16602 0 z M6.7969 9.951375 l0 0.15625 q0.76171875 0.224609375 2.55859375 1.85546875 l0.058594 0 q0 -0.05859375 0.048828125 -0.166015625 q-1.572265625 -1.416015625 -2.5 -1.845703125 l-0.16602 0 z M6.582 10.761375 l-0.048828 0.10742 l0 0.058594 q0.576171875 0.09765625 2.392578125 1.630859375 l0.10742 -0.16602 l0 -0.048828 q-2.109375 -1.58203125 -2.451171875 -1.58203125 z M5.8789 11.630375 q0.9375 0.29296875 2.2265625 1.5234375 q0.107421875 -0.048828125 0.166015625 -0.048828125 l0 -0.058594 q-1.474609375 -1.38671875 -2.28515625 -1.5234375 q-0.107421875 0.01953125 -0.107421875 0.107421875 z M3.2617 12.070375 l0.22461 0 q2.63671875 0 5.05859375 2.5 q0.52734375 0.341796875 0.869140625 0.76171875 q0 0.13671875 -0.654296875 0.21484375 q-0.634765625 -0.947265625 -1.630859375 -1.572265625 q-2.314453125 -1.30859375 -3.80859375 -1.30859375 q-0.33203125 -0.458984375 -0.33203125 -0.546875 l0.058594 0 q0.09765625 -0.048828125 0.21484375 -0.048828125 z M3.9746 12.939375 q1.640625 0.166015625 3.80859375 1.73828125 q0.498046875 0.517578125 0.76171875 0.927734375 q-0.13671875 0.2734375 -0.439453125 0.2734375 q-1.455078125 -1.4453125 -2.7734375 -1.85546875 q-1.46484375 -0.322265625 -1.46484375 -0.810546875 q-0.05859375 0 -0.05859375 -0.05859375 l0 -0.048828 q0 -0.087890625 0.166015625 -0.166015625 z M0.27344 14.462875 l0 0.10742 q2.451171875 2.138671875 2.451171875 2.666015625 l-0.11719 0.058594 l-0.10742 0 q-0.673828125 -0.537109375 -1.5234375 -1.474609375 q-0.224609375 -0.21484375 -0.703125 -0.48828125 l0 0.21484 q0.419921875 0.1171875 0.9765625 0.87890625 l0 0.10742 l-0.38086 0.048828 l-0.10742 0 l-0.48828 -0.32227 l0 0.16602 q0.21484375 0.244140625 0.21484375 0.263671875 l-0.21484 0.27344 l0 0.22461 q0.41015625 -0.439453125 0.76171875 -0.439453125 q1.30859375 0.13671875 1.30859375 1.083984375 l0 0.058594 q-0.1171875 0.380859375 -0.1171875 0.439453125 l0 0.048828 l0.058594 0 l0.27344 -0.21484 l0.21484 0.048828 q0.48828125 -0.1953125 0.712890625 -0.76171875 l0 -0.42969 l-0.058594 0 q-0.3515625 0.107421875 -0.48828125 0.107421875 q-0.8984375 -1.455078125 -2.666015625 -2.666015625 z M3.75 15.009775 l0 5.5469 l1.1426 0 q1.7578125 0 2.021484375 -2.451171875 l0 -0.42969 q0 -2.236328125 -1.5234375 -2.6171875 q-0.205078125 -0.048828125 -0.439453125 -0.048828125 l-1.2012 0 z M0.27344 17.294875 l0 0.27344 q0.703125 0 0.703125 0.595703125 l-0.048828 0.27344 l-0.058594 0 l-0.5957 -0.48828 l0 0.21484 q0.322265625 0.322265625 0.322265625 0.546875 l0 0.048828 l-0.32227 0.10742 l0 0.33203 q0.80078125 -0.419921875 0.927734375 -0.8203125 q0 -0.9765625 -0.76171875 -0.9765625 q0 -0.05859375 -0.166015625 -0.107421875 z M3.2617 17.294875 q0 0.048828125 0.05859375 0.048828125 q-0.283203125 0.654296875 -0.712890625 0.654296875 l-0.048828 -0.10742 l0 -0.27344 q0 -0.107421875 0.703125 -0.322265625 z M7.1289 18.271475 l0 0.10742 q0 0.107421875 0.927734375 0.2734375 q1.23046875 0.556640625 2.2265625 1.30859375 l0 -0.16602 q-1.07421875 -0.99609375 -3.046875 -1.5234375 l-0.10742 0 z M1.4648 21.972675 q0.361328125 1.03515625 1.03515625 1.03515625 l0.33203 0 q1.38671875 0 1.953125 -1.3671875 q-0.322265625 -0.556640625 -0.322265625 -0.64453125 q0.078125 0 0.166015625 -0.166015625 l-0.38086 0 l0.048828 0.27344 l0 0.27344 q-0.830078125 0.25390625 -2.0703125 0.91796875 l-0.15625 0 l0 0.16602 l0.048828 0 q0.33203125 0 1.748046875 -0.76171875 q0.21484375 -0.05859375 0.4296875 -0.05859375 l0.21484 0 q0 0.888671875 -1.6796875 1.201171875 q-0.830078125 0 -1.201171875 -0.869140625 q0 -0.341796875 0.546875 -0.380859375 q0 -0.234375 1.572265625 -0.712890625 l0 -0.048828 q-0.1953125 0 -0.322265625 -0.107421875 q-0.771484375 0.25390625 -1.5234375 0.703125 l-0.058594 0 l0 -0.048828 q0 -0.91796875 1.640625 -1.30859375 l0 -0.21484 q-0.087890625 0 -0.498046875 0.107421875 q0 -0.37109375 0.498046875 -0.60546875 l0 -0.42969 q-2.021484375 2.021484375 -2.021484375 3.046875 z M7.0215 18.974575 l-0.058594 0.11719 l0 0.048828 q1.71875 0.380859375 2.880859375 1.357421875 q0 0.087890625 0.224609375 0.224609375 q0 -0.05859375 0.048828125 -0.166015625 q-1.455078125 -1.26953125 -3.095703125 -1.58203125 z M6.748 19.628875 l-0.10742 0.16602 l0 0.058594 q0.52734375 0 2.119140625 0.703125 q0.76171875 0.546875 1.03515625 0.8203125 l0.048828 -0.27344 q-1.591796875 -1.181640625 -3.095703125 -1.474609375 z M6.1523 20.341775 q0 0.1171875 -0.2734375 0.15625 l0 0.058594 q2.1484375 0 3.4765625 1.46484375 l0.10742 -0.15625 q-1.455078125 -1.5234375 -3.310546875 -1.5234375 z M5.1172 20.771475 l0 0.058594 q0.56640625 0 0.703125 0.810546875 q0 0.8984375 -1.30859375 1.58203125 q-0.107421875 -0.05859375 -0.15625 -0.05859375 q-0.0390625 0.185546875 -0.654296875 0.380859375 l-0.21484 0.22461 l0.81055 0 l0 -0.058594 l-0.10742 0 q0 -0.166015625 0.439453125 -0.21484375 q0.29296875 0 1.357421875 0.2734375 l0.16602 0 l0 -0.058594 q-1.025390625 -0.3515625 -1.09375 -0.4296875 l0 -0.058594 q0.126953125 -0.2734375 0.2734375 -0.2734375 q0.859375 0.0390625 1.845703125 0.595703125 q0.1171875 -0.048828125 0.166015625 -0.048828125 q0 -0.263671875 -1.73828125 -0.712890625 l0 -0.048828 q0.3125 -0.546875 0.4296875 -0.595703125 l0.058594 0 q0.830078125 0 2.01171875 0.9765625 q0.107421875 0 0.107421875 -0.107421875 q-1.181640625 -1.03515625 -2.177734375 -1.142578125 l-0.048828 -0.48828 q0.107421875 -0.05859375 0.166015625 -0.05859375 q0.56640625 0 2.2265625 1.03515625 q0 0.078125 0.322265625 0.322265625 q0.1171875 0 0.1171875 -0.107421875 q0 -0.361328125 -2.236328125 -1.357421875 q-0.76171875 -0.107421875 -0.9765625 -0.439453125 q0 -0.048828125 -0.107421875 -0.048828125 z M0.27344 23.769535 l0.10742 0 q0.078125 0 0.166015625 -0.166015625 l0 -0.10742 q-0.068359375 0 -0.2734375 0.2734375 z M1.3574 23.769535 l0.22461 0 l0 -0.16602 l-0.058594 0 q-0.078125 0 -0.166015625 0.166015625 z  M18.0761725 3.418375000000001 l3.9746 0 q3.984375 0 5.380859375 2.880859375 q0.546875 1.279296875 0.546875 2.509765625 l0 0.70313 q0 2.353515625 -1.845703125 3.75 q1.181640625 0.60546875 1.845703125 2.34375 q0.380859375 1.181640625 0.380859375 2.119140625 l0 0.76172 q0 3.837890625 -3.369140625 5.283203125 q-0.791015625 0.21484375 -1.201171875 0.21484375 l-5.8789 0 q-0.21484375 -0.09765625 -0.21484375 -0.380859375 l0 -19.697 q0 -0.48828125 0.380859375 -0.48828125 z M17.9687525 3.6913750000000007 l0 0.32227 q1.416015625 1.630859375 1.416015625 2.55859375 l0 0.71289 q-0.341796875 0.4296875 -0.546875 0.4296875 q-0.3125 -1.943359375 -0.8203125 -2.666015625 l-0.048828 0 l0 0.38086 q0.595703125 1.357421875 0.595703125 2.392578125 l0 0.10742 q0 0.33203125 -0.322265625 0.439453125 q-0.224609375 -0.6640625 -0.224609375 -0.76171875 l-0.048828 0 l0 0.21484 l0.048828 0.6543 q-0.048828125 0.302734375 -0.048828125 0.595703125 l0.048828 0 q1.416015625 -0.83984375 2.83203125 -0.9765625 l0.33203 0 l0 -0.32227 q-0.3125 0.15625 -1.5234375 0.380859375 q-0.01953125 0.048828125 -1.142578125 0.4296875 l0 -0.048828 q1.279296875 -1.484375 2.880859375 -2.6171875 q1.552734375 -1.142578125 3.26171875 -1.73828125 l0.10742 0 l0 -0.10742 q-0.15625 0 -0.537109375 -0.166015625 l0.048828 0.10742 l0 0.058594 q-0.595703125 0.4296875 -0.927734375 0.4296875 l-0.048828 0 q0 -0.15625 -0.166015625 -0.810546875 l-0.21484 0 l0 0.048828 q0 0.166015625 0.21484375 0.8203125 q-0.185546875 0.2734375 -0.654296875 0.2734375 q-0.107421875 -0.595703125 -0.2734375 -1.142578125 l-0.26367 0 l0 0.048828 q0.15625 0.234375 0.322265625 1.09375 q0 0.3125 -0.380859375 0.546875 q-0.107421875 -0.1953125 -0.380859375 -1.416015625 q-0.166015625 -0.2734375 -0.21484375 -0.2734375 l-0.27344 0 l0 0.048828 q0.546875 0.68359375 0.546875 1.640625 q0 0.33203125 -0.498046875 0.537109375 q0 -1.357421875 -0.810546875 -2.2265625 l-0.27344 0 q0.869140625 0.9765625 0.869140625 1.953125 q0 0.5859375 -0.48828125 0.8203125 l-0.10742 0 l0 -0.21484 q0 -1.23046875 -1.201171875 -2.509765625 l0 -0.048828 l-0.48828 0 q1.5234375 1.30859375 1.5234375 2.666015625 q0 0.48828125 -0.322265625 0.654296875 l-0.10742 0 q0 -1.591796875 -1.640625 -3.3203125 l-0.048828 0 z M23.5156125 3.798375 q0.09765625 0.439453125 0.21484375 0.439453125 q0.05859375 -0.1171875 0.05859375 -0.166015625 q0 -0.33203125 -0.2734375 -0.33203125 l0 0.058594 z M22.6465125 6.679375 l0 0.058594 q0.2734375 0 0.2734375 0.048828125 q1.484375 -0.849609375 3.53515625 -1.5234375 l-0.10742 -0.15625 q-1.591796875 0.537109375 -3.701171875 1.572265625 z M23.7305125 7.0603750000000005 l0.11719 0.16602 q1.904296875 -0.9765625 3.095703125 -1.30859375 l0 -0.10742 l-0.048828 0 q-0.60546875 0 -3.1640625 1.25 z M24.2773125 7.7733750000000015 q0.05859375 0.107421875 0.05859375 0.15625 q2.509765625 -1.19140625 2.98828125 -1.19140625 l0 -0.16602 l-0.048828 0 q-1.591796875 0.48828125 -2.998046875 1.201171875 z M21.4453125 6.953375000000001 l0 4.6777 l1.3086 0 q1.201171875 0 1.5234375 -1.73828125 q0.05859375 -0.05859375 0.05859375 -0.439453125 l0 -0.26367 q0 -1.884765625 -1.474609375 -2.236328125 l-1.416 0 z M24.5508125 8.584375 l0 0.22461 q1.1328125 0.419921875 2.98828125 2.01171875 l0.058594 0 l0 -0.22461 l-0.10742 -0.15625 l0.21484 -0.27344 l0 -0.10742 l-0.048828 0 q-0.2734375 0.15625 -0.546875 0.15625 q-0.33203125 -0.185546875 -0.33203125 -0.263671875 l0 -0.11719 q0.986328125 -0.44921875 0.986328125 -0.537109375 l0 -0.10742 q-0.537109375 0.15625 -1.25 0.537109375 l-0.11719 0 q-0.537109375 -0.322265625 -0.537109375 -0.537109375 l0.048828 0 q0.9375 -0.60546875 1.85546875 -0.60546875 q-0.05859375 -0.56640625 -0.166015625 -1.03515625 q-0.80078125 0 -3.046875 1.03515625 z M27.5391125 7.7733750000000015 q0 0.703125 -0.48828125 0.703125 q-1.279296875 0.546875 -1.630859375 0.546875 q-0.361328125 -0.21484375 -0.4296875 -0.21484375 l0 -0.058594 q1.083984375 -0.869140625 2.333984375 -0.9765625 l0.21484 0 z M17.9687525 10.332375 l0 0.32227 q0.8984375 0.107421875 2.7734375 1.962890625 q1.03515625 1.044921875 1.03515625 1.46484375 l0 0.058594 q-1.07421875 -0.234375 -1.25 -0.33203125 q-2.16796875 -1.73828125 -2.55859375 -1.73828125 l0 0.048828 q1.03515625 0.654296875 2.0703125 1.5234375 l0.15625 0.22461 l0 0.048828 q0 0.107421875 -0.322265625 0.224609375 q-1.201171875 -1.19140625 -1.904296875 -1.3671875 l0 0.22461 q1.630859375 0.732421875 1.630859375 1.298828125 l0 0.058594 q0 0.107421875 -0.107421875 0.107421875 q-1.34765625 -0.869140625 -1.5234375 -0.869140625 l0 0.10742 q0.830078125 0.5078125 1.357421875 0.9765625 l1.3574 1.6895 q0.09765625 0.3125 0.380859375 0.595703125 l0.11719 0 l0 -0.15625 q-0.87890625 -1.2109375 -0.87890625 -1.3671875 l0.11719 0 q0.380859375 0 0.703125 0.927734375 l0.058594 0 l0 -0.38086 q-0.224609375 -0.3125 -0.224609375 -0.48828125 q0.09765625 -0.05859375 0.224609375 -0.05859375 l0 -0.27344 l-0.058594 0 q-0.3515625 0.1171875 -0.48828125 0.1171875 q-0.9765625 0 -0.9765625 -0.60546875 q0.3515625 -0.595703125 0.810546875 -0.595703125 q0 0.078125 0.166015625 0.166015625 l0.16602 -0.10742 l0.21484 0 q0.595703125 0 1.142578125 0.64453125 l0.42969 0 l0 -0.048828 q-0.322265625 0 -0.322265625 -0.380859375 l-0.058594 -0.33203 q1.03515625 0 2.939453125 1.474609375 q0.439453125 0.4296875 0.439453125 0.595703125 q-0.3125 0.2734375 -0.546875 0.2734375 q-0.009765625 -0.078125 -0.546875 -0.48828125 l-0.048828 0 q0.166015625 0.361328125 0.380859375 0.595703125 l0 0.10742 q0 0.107421875 -0.107421875 0.107421875 q0 0.439453125 0.48828125 0.439453125 q1.669921875 0.5078125 2.880859375 1.689453125 l0.058594 0 l0 -0.16602 q0 -0.078125 -0.166015625 -0.166015625 l0.16602 -0.27344 l0 -0.21484 q-0.05859375 0 -0.33203125 0.21484375 l-0.10742 0 q-0.3125 -0.17578125 -0.4296875 -0.380859375 l0 -0.048828 q0.44921875 -0.380859375 0.869140625 -0.380859375 l0 -0.058594 q0 -0.107421875 -0.107421875 -0.107421875 q-0.712890625 0.21484375 -1.09375 0.380859375 l-1.9043 -0.76172 l0 -0.048828 q0.419921875 -0.693359375 2.6171875 -1.3671875 l0 -0.048828 q0 -0.126953125 -0.712890625 -0.439453125 q-3.017578125 -3.046875 -5.2734375 -3.046875 l-0.71289 0 q-0.185546875 0 -0.48828125 0.05859375 q-0.380859375 -0.13671875 -0.380859375 -0.380859375 q0.41015625 -0.2734375 1.09375 -0.2734375 l0 -0.16602 l-0.11719 0 q-0.48828125 0 -1.298828125 0.2734375 q-0.263671875 0 -0.48828125 -0.439453125 q0 -0.29296875 1.904296875 -0.64453125 l0 -0.16602 l-0.058594 0 q-0.732421875 0 -2.28515625 0.703125 l-0.48828 -0.27344 q0.234375 -0.732421875 2.83203125 -0.9765625 l0 -0.16602 l-0.058594 0 q-1.73828125 0 -2.98828125 0.87890625 l-0.16602 0 z M24.4922125 9.951375 l0 0.15625 q0.76171875 0.224609375 2.55859375 1.85546875 l0.058594 0 q0 -0.05859375 0.048828125 -0.166015625 q-1.572265625 -1.416015625 -2.5 -1.845703125 l-0.16602 0 z M24.2773125 10.761375 l-0.048828 0.10742 l0 0.058594 q0.576171875 0.09765625 2.392578125 1.630859375 l0.10742 -0.16602 l0 -0.048828 q-2.109375 -1.58203125 -2.451171875 -1.58203125 z M23.5742125 11.630375 q0.9375 0.29296875 2.2265625 1.5234375 q0.107421875 -0.048828125 0.166015625 -0.048828125 l0 -0.058594 q-1.474609375 -1.38671875 -2.28515625 -1.5234375 q-0.107421875 0.01953125 -0.107421875 0.107421875 z M20.9570125 12.070375 l0.22461 0 q2.63671875 0 5.05859375 2.5 q0.52734375 0.341796875 0.869140625 0.76171875 q0 0.13671875 -0.654296875 0.21484375 q-0.634765625 -0.947265625 -1.630859375 -1.572265625 q-2.314453125 -1.30859375 -3.80859375 -1.30859375 q-0.33203125 -0.458984375 -0.33203125 -0.546875 l0.058594 0 q0.09765625 -0.048828125 0.21484375 -0.048828125 z M21.6699125 12.939375 q1.640625 0.166015625 3.80859375 1.73828125 q0.498046875 0.517578125 0.76171875 0.927734375 q-0.13671875 0.2734375 -0.439453125 0.2734375 q-1.455078125 -1.4453125 -2.7734375 -1.85546875 q-1.46484375 -0.322265625 -1.46484375 -0.810546875 q-0.05859375 0 -0.05859375 -0.05859375 l0 -0.048828 q0 -0.087890625 0.166015625 -0.166015625 z M17.9687525 14.462875 l0 0.10742 q2.451171875 2.138671875 2.451171875 2.666015625 l-0.11719 0.058594 l-0.10742 0 q-0.673828125 -0.537109375 -1.5234375 -1.474609375 q-0.224609375 -0.21484375 -0.703125 -0.48828125 l0 0.21484 q0.419921875 0.1171875 0.9765625 0.87890625 l0 0.10742 l-0.38086 0.048828 l-0.10742 0 l-0.48828 -0.32227 l0 0.16602 q0.21484375 0.244140625 0.21484375 0.263671875 l-0.21484 0.27344 l0 0.22461 q0.41015625 -0.439453125 0.76171875 -0.439453125 q1.30859375 0.13671875 1.30859375 1.083984375 l0 0.058594 q-0.1171875 0.380859375 -0.1171875 0.439453125 l0 0.048828 l0.058594 0 l0.27344 -0.21484 l0.21484 0.048828 q0.48828125 -0.1953125 0.712890625 -0.76171875 l0 -0.42969 l-0.058594 0 q-0.3515625 0.107421875 -0.48828125 0.107421875 q-0.8984375 -1.455078125 -2.666015625 -2.666015625 z M21.4453125 15.009775 l0 5.5469 l1.1426 0 q1.7578125 0 2.021484375 -2.451171875 l0 -0.42969 q0 -2.236328125 -1.5234375 -2.6171875 q-0.205078125 -0.048828125 -0.439453125 -0.048828125 l-1.2012 0 z M17.9687525 17.294875 l0 0.27344 q0.703125 0 0.703125 0.595703125 l-0.048828 0.27344 l-0.058594 0 l-0.5957 -0.48828 l0 0.21484 q0.322265625 0.322265625 0.322265625 0.546875 l0 0.048828 l-0.32227 0.10742 l0 0.33203 q0.80078125 -0.419921875 0.927734375 -0.8203125 q0 -0.9765625 -0.76171875 -0.9765625 q0 -0.05859375 -0.166015625 -0.107421875 z M20.9570125 17.294875 q0 0.048828125 0.05859375 0.048828125 q-0.283203125 0.654296875 -0.712890625 0.654296875 l-0.048828 -0.10742 l0 -0.27344 q0 -0.107421875 0.703125 -0.322265625 z M24.8242125 18.271475 l0 0.10742 q0 0.107421875 0.927734375 0.2734375 q1.23046875 0.556640625 2.2265625 1.30859375 l0 -0.16602 q-1.07421875 -0.99609375 -3.046875 -1.5234375 l-0.10742 0 z M19.1601125 21.972675 q0.361328125 1.03515625 1.03515625 1.03515625 l0.33203 0 q1.38671875 0 1.953125 -1.3671875 q-0.322265625 -0.556640625 -0.322265625 -0.64453125 q0.078125 0 0.166015625 -0.166015625 l-0.38086 0 l0.048828 0.27344 l0 0.27344 q-0.830078125 0.25390625 -2.0703125 0.91796875 l-0.15625 0 l0 0.16602 l0.048828 0 q0.33203125 0 1.748046875 -0.76171875 q0.21484375 -0.05859375 0.4296875 -0.05859375 l0.21484 0 q0 0.888671875 -1.6796875 1.201171875 q-0.830078125 0 -1.201171875 -0.869140625 q0 -0.341796875 0.546875 -0.380859375 q0 -0.234375 1.572265625 -0.712890625 l0 -0.048828 q-0.1953125 0 -0.322265625 -0.107421875 q-0.771484375 0.25390625 -1.5234375 0.703125 l-0.058594 0 l0 -0.048828 q0 -0.91796875 1.640625 -1.30859375 l0 -0.21484 q-0.087890625 0 -0.498046875 0.107421875 q0 -0.37109375 0.498046875 -0.60546875 l0 -0.42969 q-2.021484375 2.021484375 -2.021484375 3.046875 z M24.7168125 18.974575 l-0.058594 0.11719 l0 0.048828 q1.71875 0.380859375 2.880859375 1.357421875 q0 0.087890625 0.224609375 0.224609375 q0 -0.05859375 0.048828125 -0.166015625 q-1.455078125 -1.26953125 -3.095703125 -1.58203125 z M24.4433125 19.628875 l-0.10742 0.16602 l0 0.058594 q0.52734375 0 2.119140625 0.703125 q0.76171875 0.546875 1.03515625 0.8203125 l0.048828 -0.27344 q-1.591796875 -1.181640625 -3.095703125 -1.474609375 z M23.8476125 20.341775 q0 0.1171875 -0.2734375 0.15625 l0 0.058594 q2.1484375 0 3.4765625 1.46484375 l0.10742 -0.15625 q-1.455078125 -1.5234375 -3.310546875 -1.5234375 z M22.8125125 20.771475 l0 0.058594 q0.56640625 0 0.703125 0.810546875 q0 0.8984375 -1.30859375 1.58203125 q-0.107421875 -0.05859375 -0.15625 -0.05859375 q-0.0390625 0.185546875 -0.654296875 0.380859375 l-0.21484 0.22461 l0.81055 0 l0 -0.058594 l-0.10742 0 q0 -0.166015625 0.439453125 -0.21484375 q0.29296875 0 1.357421875 0.2734375 l0.16602 0 l0 -0.058594 q-1.025390625 -0.3515625 -1.09375 -0.4296875 l0 -0.058594 q0.126953125 -0.2734375 0.2734375 -0.2734375 q0.859375 0.0390625 1.845703125 0.595703125 q0.1171875 -0.048828125 0.166015625 -0.048828125 q0 -0.263671875 -1.73828125 -0.712890625 l0 -0.048828 q0.3125 -0.546875 0.4296875 -0.595703125 l0.058594 0 q0.830078125 0 2.01171875 0.9765625 q0.107421875 0 0.107421875 -0.107421875 q-1.181640625 -1.03515625 -2.177734375 -1.142578125 l-0.048828 -0.48828 q0.107421875 -0.05859375 0.166015625 -0.05859375 q0.56640625 0 2.2265625 1.03515625 q0 0.078125 0.322265625 0.322265625 q0.1171875 0 0.1171875 -0.107421875 q0 -0.361328125 -2.236328125 -1.357421875 q-0.76171875 -0.107421875 -0.9765625 -0.439453125 q0 -0.048828125 -0.107421875 -0.048828125 z M17.9687525 23.769535 l0.10742 0 q0.078125 0 0.166015625 -0.166015625 l0 -0.10742 q-0.068359375 0 -0.2734375 0.2734375 z M19.0527125 23.769535 l0.22461 0 l0 -0.16602 l-0.058594 0 q-0.078125 0 -0.166015625 0.166015625 z"/></g>
			</g>
		</svg>
    